<?xml version="1.1" encoding="UTF-8"?>
<svg
xmlns = "http://www.w3.org/2000/svg"

width = "1280"
height = "960"
viewBox= "0 0 1280 960">

<path
	 style="fill:none;stroke:#000000;stroke-width:0.50px;stroke-linecap:round;stroke-linejoin:miter;stroke-opacity:1"
 d="M 0,80 C10,82 29,90 33,78 13,56 61,57 47,78 45,86 70,80 80,80 90,80 105,71 108,81 94,105 140,104 131,81 127,75 150,80 160,80 170,78 189,86 192,80 175,56 218,59 212,78 210,88 230,82 240,80 250,79 267,73 269,80 254,104 296,100 289,79 289,71 310,82 320,80 330,82 349,87 348,79 334,55 376,56 369,81 367,91 390,81 400,80 410,81 428,71 433,82 413,104 458,107 451,81 445,74 470,78 480,80 490,81 505,86 509,80 493,56 537,56 528,79 530,85 550,80 560,80 570,80 585,86 593,78 575,57 616,54 611,79 610,85 630,78 640,80 650,82 669,89 670,81 653,57 697,57 691,79 685,88 710,78 720,80 730,82 748,89 751,82 733,59 779,58 768,81 766,89 790,80 800,80 810,81 825,90 829,81 815,57 856,55 852,78 846,87 870,78 880,80 890,81 907,86 913,79 894,57 937,57 929,80 929,87 950,80 960,80 970,79 989,70 993,82 975,104 1023,108 1007,82 1007,73 1030,81 1040,80 1050,82 1067,89 1070,78 1053,55 1100,53 1091,81 1087,87 1110,78 1120,80 1130,81 1149,73 1151,80 1133,103 1180,103 1171,78 1169,71 1190,80 1200,80 1210,82 1229,88 1229,78 1215,52 1262,53 1251,79 1246,85 1270,78 1280,80 "
	id="pfad_0" 
	inkscape:connector-curvature="0"
 />

<path
	 style="fill:none;stroke:#000000;stroke-width:0.50px;stroke-linecap:round;stroke-linejoin:miter;stroke-opacity:1"
 d="M 0,160 C10,162 26,150 33,161 13,182 63,182 52,158 47,151 70,159 80,160 90,162 107,151 108,161 93,184 141,186 127,159 126,153 150,160 160,160 170,161 185,170 193,161 175,135 217,141 207,158 210,167 230,158 240,160 250,158 266,153 272,162 255,185 301,187 291,161 290,152 310,158 320,160 330,160 345,167 352,159 333,138 379,136 370,161 367,169 390,161 400,160 410,161 426,153 428,158 413,184 462,178 447,162 448,156 470,162 480,160 490,161 509,167 510,162 495,136 540,139 532,162 526,171 550,162 560,160 570,160 587,150 589,162 573,183 618,186 608,158 608,150 630,158 640,160 650,159 669,153 670,160 654,184 697,185 690,161 686,154 710,159 720,160 730,162 747,170 753,158 735,133 779,137 769,162 767,168 790,162 800,160 810,159 826,168 831,161 813,141 859,137 851,162 848,168 870,162 880,160 890,162 906,152 909,159 894,180 941,183 927,159 926,151 950,159 960,160 970,162 987,154 988,162 975,187 1019,184 1007,161 1010,151 1030,161 1040,160 1050,162 1066,153 1070,161 1053,184 1097,186 1090,160 1085,150 1110,158 1120,160 1130,160 1146,169 1150,162 1134,138 1176,140 1172,158 1167,168 1190,161 1200,160 1210,162 1225,152 1230,162 1214,183 1261,183 1249,161 1248,154 1270,162 1280,160 "
	id="pfad_1" 
	inkscape:connector-curvature="0"
 />

<path
	 style="fill:none;stroke:#000000;stroke-width:0.50px;stroke-linecap:round;stroke-linejoin:miter;stroke-opacity:1"
 d="M 0,240 C10,239 29,247 33,239 13,217 57,219 51,240 48,246 70,241 80,240 90,238 106,246 113,242 93,219 136,222 128,239 129,247 150,239 160,240 170,238 189,250 189,241 174,215 221,221 207,240 208,246 230,242 240,240 250,239 268,250 268,241 254,221 301,218 287,240 286,249 310,238 320,240 330,241 347,247 352,239 335,213 381,219 367,239 369,246 390,241 400,240 410,241 427,248 430,242 413,221 463,216 451,240 446,250 470,240 480,240 490,242 506,234 510,241 494,266 542,262 527,238 529,228 550,242 560,240 570,240 586,247 592,240 575,217 623,216 610,241 605,249 630,240 640,240 650,242 669,246 673,239 653,216 698,216 689,239 690,247 710,238 720,240 730,242 746,233 753,238 733,258 779,262 767,242 768,236 790,242 800,240 810,239 825,231 833,240 814,263 862,266 848,240 845,230 870,240 880,240 890,240 905,234 909,240 894,264 936,265 927,239 929,231 950,241 960,240 970,239 988,231 990,238 975,263 1017,259 1012,238 1005,231 1030,239 1040,240 1050,242 1069,231 1069,241 1055,262 1098,266 1090,240 1085,231 1110,239 1120,240 1130,238 1147,246 1148,240 1135,216 1182,219 1167,241 1169,248 1190,241 1200,240 1210,239 1227,231 1228,239 1214,264 1258,264 1247,241 1245,235 1270,240 1280,240 "
	id="pfad_2" 
	inkscape:connector-curvature="0"
 />

<path
	 style="fill:none;stroke:#000000;stroke-width:0.50px;stroke-linecap:round;stroke-linejoin:miter;stroke-opacity:1"
 d="M 0,320 C10,318 29,311 30,320 15,345 61,341 51,322 49,312 70,322 80,320 90,321 109,310 111,322 94,348 140,342 129,318 129,309 150,319 160,320 170,320 186,312 188,320 175,340 216,342 212,319 208,311 230,318 240,320 250,322 268,326 272,319 254,297 302,294 289,320 285,330 310,319 320,320 330,321 347,311 352,318 334,338 383,341 367,321 368,313 390,321 400,320 410,318 429,310 428,318 414,344 457,339 450,318 446,310 470,319 480,320 490,321 506,312 508,320 494,343 542,342 528,321 529,312 550,321 560,320 570,319 587,329 590,319 573,297 623,296 609,321 607,329 630,319 640,320 650,321 666,314 673,320 654,346 699,346 689,318 688,312 710,322 720,320 730,318 748,330 749,320 734,298 778,297 771,319 767,325 790,320 800,320 810,320 825,314 832,322 815,347 863,348 850,322 846,312 870,322 880,320 890,318 906,327 911,318 895,298 939,293 928,319 929,325 950,322 960,320 970,318 988,326 993,319 975,299 1023,295 1009,322 1007,331 1030,318 1040,320 1050,320 1069,313 1073,320 1054,340 1100,341 1092,318 1086,311 1110,318 1120,320 1130,321 1146,311 1151,322 1135,343 1176,342 1172,319 1166,310 1190,321 1200,320 1210,322 1228,310 1229,319 1214,343 1258,342 1251,322 1250,312 1270,319 1280,320 "
	id="pfad_3" 
	inkscape:connector-curvature="0"
 />

<path
	 style="fill:none;stroke:#000000;stroke-width:0.50px;stroke-linecap:round;stroke-linejoin:miter;stroke-opacity:1"
 d="M 0,400 C10,398 27,409 32,400 15,376 58,374 50,402 47,411 70,398 80,400 90,402 109,410 111,398 95,374 139,375 127,402 130,411 150,400 160,400 170,399 185,409 191,399 175,376 217,379 210,399 209,408 230,402 240,400 250,401 269,409 271,401 253,376 297,379 287,398 286,406 310,402 320,400 330,400 347,390 351,400 335,426 381,423 372,398 370,391 390,399 400,400 410,401 426,392 428,399 415,420 458,420 449,402 447,392 470,398 480,400 490,398 505,393 512,401 493,421 543,427 530,398 528,390 550,398 560,400 570,398 589,391 593,400 575,422 623,423 610,400 607,393 630,402 640,400 650,398 667,393 668,400 654,420 696,425 691,401 688,393 710,401 720,400 730,402 747,392 751,399 733,422 780,423 771,402 768,396 790,400 800,400 810,398 826,407 830,398 815,378 857,377 849,400 845,410 870,401 880,400 890,402 907,392 912,399 895,422 937,421 930,398 930,388 950,398 960,400 970,401 985,392 988,398 975,421 1022,418 1012,399 1007,391 1030,399 1040,400 1050,398 1066,408 1073,401 1055,380 1103,376 1090,401 1088,411 1110,399 1120,400 1130,399 1149,406 1150,398 1133,378 1177,377 1172,401 1170,411 1190,398 1200,400 1210,402 1228,391 1231,399 1214,421 1257,421 1250,400 1250,393 1270,399 1280,400 "
	id="pfad_4" 
	inkscape:connector-curvature="0"
 />

<path
	 style="fill:none;stroke:#000000;stroke-width:0.50px;stroke-linecap:round;stroke-linejoin:miter;stroke-opacity:1"
 d="M 0,480 C10,481 27,472 33,482 14,506 56,508 52,480 49,471 70,481 80,480 90,479 109,473 110,481 93,505 141,501 128,481 128,474 150,481 160,480 170,482 186,488 193,480 173,458 219,459 210,480 208,490 230,481 240,480 250,482 267,474 273,479 253,501 303,500 289,481 289,472 310,481 320,480 330,478 347,486 353,479 335,458 377,454 368,480 367,489 390,482 400,480 410,478 428,473 433,478 414,498 459,504 447,478 449,470 470,478 480,480 490,478 505,488 512,478 493,458 539,457 527,480 527,489 550,478 560,480 570,479 588,490 591,482 575,459 622,456 608,479 610,488 630,478 640,480 650,482 669,471 672,482 654,502 699,508 687,480 687,472 710,481 720,480 730,481 749,470 751,480 733,504 783,502 767,479 766,470 790,482 800,480 810,480 827,474 831,480 815,506 856,502 852,480 848,470 870,480 880,480 890,480 905,486 908,482 893,457 937,462 928,478 930,486 950,482 960,480 970,480 986,472 991,481 973,502 1018,505 1008,479 1007,470 1030,482 1040,480 1050,479 1065,471 1073,480 1053,500 1097,505 1088,482 1088,474 1110,482 1120,480 1130,479 1146,486 1148,481 1135,455 1176,461 1167,478 1165,486 1190,478 1200,480 1210,482 1226,490 1231,478 1213,453 1257,452 1249,481 1250,489 1270,480 1280,480 "
	id="pfad_5" 
	inkscape:connector-curvature="0"
 />

<path
	 style="fill:none;stroke:#000000;stroke-width:0.50px;stroke-linecap:round;stroke-linejoin:miter;stroke-opacity:1"
 d="M 0,560 C10,560 29,550 33,561 13,586 60,582 49,561 45,551 70,562 80,560 90,562 105,554 110,560 95,583 141,585 130,559 130,553 150,558 160,560 170,560 189,567 190,558 175,538 218,537 210,562 206,570 230,561 240,560 250,558 269,551 272,558 254,579 296,581 289,561 287,551 310,558 320,560 330,562 347,568 352,560 333,535 379,538 370,562 368,570 390,559 400,560 410,559 428,570 428,558 413,538 463,533 451,562 448,569 470,559 480,560 490,560 505,550 508,562 495,582 536,588 529,560 529,553 550,561 560,560 570,562 588,569 593,560 574,534 623,536 610,558 609,565 630,561 640,560 650,558 666,570 669,559 655,533 703,538 689,562 690,570 710,559 720,560 730,561 745,551 749,562 734,582 782,587 769,559 766,550 790,560 800,560 810,558 828,550 830,561 814,581 861,587 849,560 847,552 870,560 880,560 890,561 907,568 910,558 895,536 939,537 930,562 926,572 950,559 960,560 970,558 985,554 991,562 974,583 1023,586 1008,562 1008,553 1030,558 1040,560 1050,559 1069,550 1073,562 1055,586 1097,588 1089,562 1087,555 1110,559 1120,560 1130,560 1149,553 1152,561 1135,582 1183,586 1168,562 1170,554 1190,559 1200,560 1210,562 1228,553 1232,558 1215,582 1261,578 1248,562 1248,553 1270,561 1280,560 "
	id="pfad_6" 
	inkscape:connector-curvature="0"
 />

<path
	 style="fill:none;stroke:#000000;stroke-width:0.50px;stroke-linecap:round;stroke-linejoin:miter;stroke-opacity:1"
 d="M 0,640 C10,638 28,633 28,640 13,661 61,661 51,641 50,633 70,638 80,640 90,641 108,633 109,640 95,662 141,665 129,639 126,629 150,640 160,640 170,639 188,633 188,640 173,663 220,661 208,638 209,628 230,642 240,640 250,638 269,632 268,642 255,666 300,668 288,642 289,635 310,638 320,640 330,641 349,646 353,641 334,621 377,618 368,639 369,648 390,640 400,640 410,638 426,631 431,639 415,662 463,662 449,642 446,635 470,642 480,640 490,641 509,650 512,639 494,616 543,614 530,640 529,648 550,639 560,640 570,641 585,630 588,639 573,665 623,663 608,639 609,630 630,641 640,640 650,642 666,633 672,642 654,666 699,664 692,638 690,630 710,638 720,640 730,640 746,631 750,639 734,662 782,661 768,640 767,634 790,642 800,640 810,639 825,634 828,641 814,664 859,664 852,638 848,631 870,639 880,640 890,639 905,633 908,639 893,661 937,661 928,641 926,631 950,640 960,640 970,638 988,646 990,640 973,618 1019,619 1010,642 1007,651 1030,639 1040,640 1050,641 1068,634 1072,638 1055,658 1098,664 1088,640 1089,633 1110,641 1120,640 1130,641 1145,630 1149,640 1135,662 1178,660 1167,642 1167,636 1190,640 1200,640 1210,638 1226,650 1231,638 1215,615 1259,616 1250,642 1249,652 1270,639 1280,640 "
	id="pfad_7" 
	inkscape:connector-curvature="0"
 />

<path
	 style="fill:none;stroke:#000000;stroke-width:0.50px;stroke-linecap:round;stroke-linejoin:miter;stroke-opacity:1"
 d="M 0,720 C10,722 29,729 32,718 15,692 59,693 51,721 50,727 70,722 80,720 90,721 108,729 110,720 95,694 141,699 129,722 126,731 150,722 160,720 170,719 186,713 189,719 175,743 218,743 210,721 205,715 230,718 240,720 250,720 269,726 272,721 254,700 300,697 292,721 288,728 310,719 320,720 330,719 345,730 350,721 335,700 379,695 369,719 365,727 390,721 400,720 410,718 426,728 431,718 414,692 458,695 447,721 450,729 470,721 480,720 490,719 507,712 513,718 494,744 540,744 530,722 526,715 550,720 560,720 570,722 586,727 593,718 574,695 621,693 611,722 610,732 630,719 640,720 650,719 668,728 672,721 653,698 699,699 691,719 690,727 710,720 720,720 730,720 746,726 748,719 733,693 782,698 771,722 766,729 790,722 800,720 810,722 827,727 832,718 815,695 857,696 849,718 846,724 870,721 880,720 890,722 905,729 909,721 895,700 936,695 932,721 925,730 950,718 960,720 970,722 988,713 988,719 973,739 1018,742 1011,718 1005,711 1030,719 1040,720 1050,719 1067,714 1070,718 1054,744 1096,741 1092,718 1090,710 1110,722 1120,720 1130,720 1145,710 1153,718 1135,744 1180,742 1169,722 1165,712 1190,722 1200,720 1210,720 1227,714 1228,720 1215,744 1262,746 1252,719 1250,710 1270,719 1280,720 "
	id="pfad_8" 
	inkscape:connector-curvature="0"
 />

<path
	 style="fill:none;stroke:#000000;stroke-width:0.50px;stroke-linecap:round;stroke-linejoin:miter;stroke-opacity:1"
 d="M 0,800 C10,798 29,794 31,798 15,824 57,821 47,801 48,792 70,802 80,800 90,801 105,791 112,798 95,821 136,819 127,799 128,791 150,802 160,800 170,798 187,810 191,799 174,776 218,775 210,800 206,810 230,799 240,800 250,801 265,792 268,802 254,827 298,825 290,799 285,793 310,802 320,800 330,800 346,792 348,799 334,820 379,825 372,799 365,790 390,799 400,800 410,801 428,793 431,801 413,821 459,823 449,802 446,796 470,801 480,800 490,799 509,808 508,798 494,777 539,776 530,802 525,812 550,801 560,800 570,802 585,807 591,800 575,776 621,778 607,799 605,808 630,802 640,800 650,799 668,791 669,801 653,823 696,825 687,802 690,796 710,800 720,800 730,799 745,807 751,798 733,772 777,772 772,801 769,811 790,799 800,800 810,799 825,794 833,802 815,826 860,823 849,801 845,793 870,801 880,800 890,801 907,808 908,798 895,776 940,776 929,799 925,809 950,800 960,800 970,801 989,807 990,802 975,778 1022,777 1008,802 1009,811 1030,802 1040,800 1050,798 1068,806 1069,799 1054,779 1100,777 1092,800 1086,810 1110,801 1120,800 1130,802 1148,810 1149,798 1133,773 1179,772 1172,799 1169,808 1190,802 1200,800 1210,802 1227,808 1228,801 1215,779 1256,778 1247,802 1246,811 1270,801 1280,800 "
	id="pfad_9" 
	inkscape:connector-curvature="0"
 />

<path
	 style="fill:none;stroke:#000000;stroke-width:0.50px;stroke-linecap:round;stroke-linejoin:miter;stroke-opacity:1"
 d="M 0,880 C10,882 29,870 28,878 13,904 59,899 52,882 45,874 70,879 80,880 90,882 107,872 111,878 94,902 140,903 127,879 129,873 150,879 160,880 170,881 186,890 189,878 174,858 220,853 207,878 208,887 230,881 240,880 250,882 267,887 273,880 254,859 303,855 287,880 285,890 310,878 320,880 330,878 347,872 349,878 333,901 379,898 372,882 369,874 390,879 400,880 410,878 428,871 431,882 413,907 456,905 451,879 449,869 470,880 480,880 490,882 509,890 509,882 493,858 537,861 527,880 526,888 550,880 560,880 570,878 587,889 591,880 574,858 623,855 609,878 605,887 630,882 640,880 650,880 665,888 668,881 653,857 698,859 692,881 686,888 710,879 720,880 730,879 745,887 751,881 733,856 776,861 769,882 770,889 790,878 800,880 810,882 829,887 829,880 814,859 862,856 851,882 848,890 870,881 880,880 890,880 907,870 913,878 893,902 938,898 930,882 928,876 950,880 960,880 970,882 989,887 991,878 973,854 1020,857 1011,879 1008,887 1030,878 1040,880 1050,881 1069,890 1073,879 1055,856 1103,855 1087,880 1088,890 1110,878 1120,880 1130,879 1146,870 1151,882 1133,905 1180,907 1170,880 1165,873 1190,878 1200,880 1210,879 1228,889 1233,879 1214,856 1257,853 1250,878 1245,886 1270,880 1280,880 "
	id="pfad_10" 
	inkscape:connector-curvature="0"
 />

<path
	 style="fill:none;stroke:#000000;stroke-width:0.50px;stroke-linecap:round;stroke-linejoin:miter;stroke-opacity:1"
 d="M 80,0 C80,10 94,27 80,28 54,13 58,61 80,52 84,49 78,70 80,80 80,90 94,112 80,111 52,88 56,142 80,129 84,128 81,150 80,160 78,170 66,190 81,188 109,170 109,221 80,212 76,209 78,230 80,240 82,250 66,274 81,269 101,246 103,301 80,288 72,289 80,310 80,320 79,330 94,348 82,352 62,332 56,385 80,370 90,365 82,390 80,400 78,410 66,429 82,428 104,411 106,463 80,450 66,447 82,470 80,480 79,490 72,514 79,511 99,486 99,543 80,528 64,527 82,550 80,560 79,570 94,586 81,590 59,574 55,626 80,609 86,604 82,630 80,640 82,650 96,671 82,669 52,649 56,703 80,689 96,687 80,710 80,720 82,730 90,749 80,751 56,731 58,782 80,772 84,768 81,790 80,800 81,810 72,827 78,831 100,813 104,868 80,850 64,842 82,870 80,880 80,890 92,911 82,910 62,889 58,945 80,932 94,925 81,950 80,960 "
	id="pfad_11" 
	inkscape:connector-curvature="0"
 />

<path
	 style="fill:none;stroke:#000000;stroke-width:0.50px;stroke-linecap:round;stroke-linejoin:miter;stroke-opacity:1"
 d="M 160,0 C158,10 150,32 161,32 189,8 185,65 160,51 150,45 162,70 160,80 158,90 168,109 161,111 135,91 139,142 160,129 168,128 161,150 160,160 160,170 152,186 159,189 187,174 189,228 160,208 154,202 160,230 160,240 162,250 168,272 158,271 130,248 134,306 160,291 174,284 159,310 160,320 158,330 172,347 161,348 133,333 137,384 160,372 166,366 160,390 160,400 161,410 152,434 158,432 186,406 188,462 160,452 148,448 161,470 160,480 159,490 168,512 159,511 137,488 139,540 160,530 170,530 158,550 160,560 162,570 144,588 160,591 186,572 188,620 160,612 150,610 159,630 160,640 158,650 176,672 160,672 132,648 134,702 160,688 166,688 159,710 160,720 162,730 176,752 158,750 132,728 136,788 160,769 166,762 158,790 160,800 161,810 150,828 161,828 189,812 181,863 160,851 154,847 159,870 160,880 162,890 152,914 159,909 185,886 179,943 160,932 148,927 161,950 160,960 "
	id="pfad_12" 
	inkscape:connector-curvature="0"
 />

<path
	 style="fill:none;stroke:#000000;stroke-width:0.50px;stroke-linecap:round;stroke-linejoin:miter;stroke-opacity:1"
 d="M 240,0 C241,10 254,33 242,28 222,7 220,66 240,49 256,44 238,70 240,80 242,90 228,106 238,111 260,94 268,144 240,131 226,126 238,150 240,160 238,170 248,191 242,192 216,169 220,226 240,212 246,204 242,230 240,240 241,250 232,270 241,272 267,250 269,302 240,290 234,288 240,310 240,320 238,330 230,346 240,349 266,334 262,383 240,372 230,367 240,390 240,400 241,410 224,427 242,429 268,413 268,465 240,448 224,445 241,470 240,480 241,490 256,508 238,512 210,492 210,548 240,531 252,522 238,550 240,560 242,570 224,591 242,588 266,569 264,623 240,611 236,607 239,630 240,640 239,650 254,672 238,668 216,648 216,706 240,688 252,684 239,710 240,720 239,730 254,752 241,752 215,728 217,782 240,771 246,768 241,790 240,800 242,810 224,832 241,832 263,808 269,863 240,849 224,847 242,870 240,880 241,890 254,909 238,908 208,891 214,948 240,930 246,922 242,950 240,960 "
	id="pfad_13" 
	inkscape:connector-curvature="0"
 />

<path
	 style="fill:none;stroke:#000000;stroke-width:0.50px;stroke-linecap:round;stroke-linejoin:miter;stroke-opacity:1"
 d="M 320,0 C322,10 330,29 319,31 289,11 295,63 320,49 330,47 319,70 320,80 318,90 304,110 321,109 351,90 351,146 320,132 316,124 319,150 320,160 322,170 332,186 322,190 298,174 296,227 320,209 334,203 319,230 320,240 320,250 330,269 321,271 301,251 295,303 320,289 334,287 319,310 320,320 322,330 308,354 321,351 351,326 351,381 320,368 312,369 322,390 320,400 322,410 328,427 318,428 290,413 294,460 320,452 332,450 319,470 320,480 321,490 304,510 320,512 350,490 342,548 320,530 304,522 318,550 320,560 320,570 304,592 321,588 341,568 341,627 320,608 316,603 318,630 320,640 321,650 328,674 318,672 288,646 292,702 320,689 330,688 322,710 320,720 321,730 336,752 318,749 294,728 292,785 320,772 324,765 320,790 320,800 318,810 328,834 319,830 295,806 293,861 320,851 336,849 321,870 320,880 322,890 336,912 320,910 300,888 290,944 320,931 326,926 322,950 320,960 "
	id="pfad_14" 
	inkscape:connector-curvature="0"
 />

<path
	 style="fill:none;stroke:#000000;stroke-width:0.50px;stroke-linecap:round;stroke-linejoin:miter;stroke-opacity:1"
 d="M 400,0 C399,10 416,31 398,30 378,9 376,66 400,51 408,44 400,70 400,80 399,90 416,113 401,112 379,87 377,140 400,129 404,130 400,150 400,160 401,170 414,188 401,190 371,172 377,227 400,210 406,203 398,230 400,240 400,250 416,268 400,270 372,252 374,301 400,292 408,289 402,310 400,320 399,330 410,349 399,348 377,331 377,386 400,372 406,364 401,390 400,400 402,410 412,428 398,429 378,412 378,468 400,450 414,442 402,470 400,480 402,490 386,508 402,508 430,492 424,543 400,532 392,527 398,550 400,560 402,570 390,590 398,588 428,570 426,624 400,612 388,606 401,630 400,640 402,650 384,674 399,672 427,646 429,701 400,691 396,689 402,710 400,720 399,730 408,753 401,749 373,727 377,786 400,769 412,764 399,790 400,800 399,810 388,826 402,829 428,814 430,867 400,848 384,843 402,870 400,880 401,890 412,913 402,910 378,887 378,943 400,931 410,927 401,950 400,960 "
	id="pfad_15" 
	inkscape:connector-curvature="0"
 />

<path
	 style="fill:none;stroke:#000000;stroke-width:0.50px;stroke-linecap:round;stroke-linejoin:miter;stroke-opacity:1"
 d="M 480,0 C481,10 490,32 482,30 460,8 460,61 480,48 490,49 482,70 480,80 478,90 496,113 478,109 452,87 452,140 480,130 490,130 480,150 480,160 481,170 466,186 482,192 506,174 512,221 480,212 468,209 482,230 480,240 481,250 494,274 482,270 458,246 462,305 480,288 494,285 479,310 480,320 478,330 496,350 481,350 461,330 459,387 480,370 496,363 482,390 480,400 481,410 494,426 478,430 456,414 458,465 480,448 490,445 482,470 480,480 480,490 496,514 479,510 453,486 455,546 480,529 490,524 481,550 480,560 478,570 490,589 480,590 454,571 460,627 480,612 486,603 482,630 480,640 482,650 490,666 479,669 451,654 449,707 480,691 490,683 479,710 480,720 481,730 470,754 479,750 507,726 503,781 480,771 464,769 482,790 480,800 481,810 470,827 479,830 509,813 501,864 480,850 470,846 482,870 480,880 482,890 494,911 481,910 457,889 459,945 480,932 486,925 478,950 480,960 "
	id="pfad_16" 
	inkscape:connector-curvature="0"
 />

<path
	 style="fill:none;stroke:#000000;stroke-width:0.50px;stroke-linecap:round;stroke-linejoin:miter;stroke-opacity:1"
 d="M 560,0 C559,10 574,28 562,29 534,12 536,65 560,52 576,45 560,70 560,80 562,90 574,107 558,112 530,93 530,145 560,128 576,125 559,150 560,160 559,170 550,194 558,191 586,166 586,220 560,211 548,210 558,230 560,240 562,250 576,274 559,271 539,246 533,307 560,292 570,283 562,310 560,320 561,330 572,346 561,352 537,334 533,382 560,372 572,368 560,390 560,400 558,410 550,430 561,432 591,410 587,467 560,451 546,443 558,470 560,480 559,490 572,506 559,510 539,494 531,546 560,529 574,524 560,550 560,560 561,570 546,591 560,590 582,569 586,624 560,612 546,606 562,630 560,640 558,650 570,670 558,669 536,650 534,704 560,688 570,686 562,710 560,720 558,730 568,749 561,748 531,731 535,782 560,769 568,768 558,790 560,800 560,810 576,832 558,830 528,808 532,864 560,849 566,846 559,870 560,880 562,890 544,908 558,909 588,892 578,944 560,928 546,926 561,950 560,960 "
	id="pfad_17" 
	inkscape:connector-curvature="0"
 />

<path
	 style="fill:none;stroke:#000000;stroke-width:0.50px;stroke-linecap:round;stroke-linejoin:miter;stroke-opacity:1"
 d="M 640,0 C639,10 654,26 640,30 610,14 616,63 640,50 656,47 639,70 640,80 642,90 652,106 642,109 614,94 612,141 640,131 650,129 641,150 640,160 641,170 626,189 641,188 661,171 663,228 640,212 628,202 640,230 640,240 641,250 656,269 641,268 621,251 613,308 640,289 644,282 641,310 640,320 640,330 630,347 642,352 668,333 670,388 640,370 630,362 639,390 640,400 638,410 656,428 640,431 612,412 620,465 640,452 644,445 639,470 640,480 642,490 624,509 639,510 661,491 663,542 640,532 634,528 639,550 640,560 640,570 630,590 639,591 669,570 661,624 640,610 626,606 638,630 640,640 641,650 650,671 638,672 614,649 614,706 640,690 654,684 641,710 640,720 640,730 650,753 640,752 618,727 620,788 640,772 656,762 642,790 640,800 638,810 650,827 640,832 620,813 612,864 640,848 656,846 640,870 640,880 642,890 632,913 639,911 661,887 665,945 640,932 632,925 640,950 640,960 "
	id="pfad_18" 
	inkscape:connector-curvature="0"
 />

<path
	 style="fill:none;stroke:#000000;stroke-width:0.50px;stroke-linecap:round;stroke-linejoin:miter;stroke-opacity:1"
 d="M 720,0 C718,10 728,27 722,32 702,13 692,64 720,51 736,46 718,70 720,80 719,90 734,107 722,110 700,93 692,146 720,129 728,124 722,150 720,160 721,170 734,190 721,191 691,170 695,224 720,210 728,206 721,230 720,240 718,250 710,266 719,268 739,254 745,302 720,291 712,288 718,310 720,320 722,330 710,352 721,352 745,328 745,383 720,369 716,367 719,390 720,400 718,410 712,434 721,432 747,406 741,468 720,449 708,442 720,470 720,480 722,490 708,511 719,508 743,489 741,543 720,531 712,527 720,550 720,560 722,570 708,591 718,590 740,569 738,621 720,610 714,609 720,630 720,640 719,650 736,670 718,668 690,650 688,708 720,689 736,682 721,710 720,720 718,730 736,747 721,751 697,733 699,785 720,772 726,765 718,790 720,800 721,810 704,831 720,832 748,809 746,861 720,852 716,849 720,870 720,880 718,890 712,910 718,910 746,890 744,946 720,929 704,924 721,950 720,960 "
	id="pfad_19" 
	inkscape:connector-curvature="0"
 />

<path
	 style="fill:none;stroke:#000000;stroke-width:0.50px;stroke-linecap:round;stroke-linejoin:miter;stroke-opacity:1"
 d="M 800,0 C799,10 790,32 801,28 825,8 821,67 800,52 788,43 800,70 800,80 798,90 784,106 798,108 818,94 826,147 800,130 792,123 801,150 800,160 801,170 816,194 801,192 779,166 773,223 800,209 806,207 798,230 800,240 798,250 788,269 798,272 822,251 826,306 800,288 796,284 798,310 800,320 801,330 814,351 799,348 771,329 773,382 800,368 816,368 802,390 800,400 800,410 808,428 799,428 769,412 777,463 800,448 816,447 802,470 800,480 801,490 816,514 802,510 776,486 772,542 800,531 812,528 799,550 800,560 800,570 792,590 799,589 821,570 827,625 800,608 788,605 800,630 800,640 799,650 790,673 801,670 831,647 823,703 800,688 788,687 802,710 800,720 800,730 814,748 802,748 772,732 774,785 800,769 812,765 799,790 800,800 801,810 816,833 799,831 777,807 771,868 800,849 810,842 801,870 800,880 799,890 788,911 800,908 822,889 824,945 800,932 794,925 801,950 800,960 "
	id="pfad_20" 
	inkscape:connector-curvature="0"
 />

<path
	 style="fill:none;stroke:#000000;stroke-width:0.50px;stroke-linecap:round;stroke-linejoin:miter;stroke-opacity:1"
 d="M 880,0 C879,10 890,32 881,31 859,8 861,65 880,51 886,45 880,70 880,80 881,90 894,113 881,109 859,87 851,143 880,131 888,127 882,150 880,160 879,170 894,192 881,191 857,168 855,222 880,212 896,208 879,230 880,240 881,250 872,271 879,270 909,249 907,301 880,292 874,289 879,310 880,320 882,330 868,352 878,348 900,328 906,384 880,370 864,366 878,390 880,400 878,410 864,428 881,431 905,412 907,463 880,449 868,447 879,470 880,480 880,490 872,511 880,510 910,489 900,541 880,531 870,529 882,550 880,560 879,570 866,591 881,591 909,569 901,621 880,608 876,609 880,630 880,640 882,650 888,670 882,671 852,650 856,705 880,691 886,685 882,710 880,720 879,730 868,751 880,752 908,729 906,788 880,770 870,762 882,790 880,800 881,810 892,831 882,832 860,809 856,866 880,851 896,844 878,870 880,880 879,890 866,906 880,909 904,894 910,940 880,929 874,930 882,950 880,960 "
	id="pfad_21" 
	inkscape:connector-curvature="0"
 />

<path
	 style="fill:none;stroke:#000000;stroke-width:0.50px;stroke-linecap:round;stroke-linejoin:miter;stroke-opacity:1"
 d="M 960,0 C959,10 952,28 961,29 991,12 987,64 960,50 956,46 961,70 960,80 962,90 972,114 961,110 941,86 935,143 960,130 974,127 959,150 960,160 961,170 946,186 961,189 989,174 981,223 960,208 956,207 959,230 960,240 961,250 944,270 961,268 991,250 991,307 960,292 944,283 960,310 960,320 959,330 952,350 962,348 988,330 988,381 960,370 950,369 959,390 960,400 960,410 952,434 960,431 988,406 988,461 960,450 950,449 958,470 960,480 959,490 948,506 958,510 978,494 980,547 960,531 950,523 960,550 960,560 959,570 976,589 961,591 937,571 933,623 960,611 964,607 962,630 960,640 961,650 952,666 962,669 986,654 982,708 960,691 952,682 962,710 960,720 960,730 948,752 962,751 992,728 986,785 960,772 956,765 959,790 960,800 958,810 950,831 958,831 980,809 980,865 960,852 954,845 958,870 960,880 958,890 944,911 962,911 982,889 984,944 960,931 950,926 961,950 960,960 "
	id="pfad_22" 
	inkscape:connector-curvature="0"
 />

<path
	 style="fill:none;stroke:#000000;stroke-width:0.50px;stroke-linecap:round;stroke-linejoin:miter;stroke-opacity:1"
 d="M 1040,0 C1039,10 1052,26 1041,31 1013,14 1013,67 1040,52 1054,43 1042,70 1040,80 1039,90 1050,110 1042,108 1020,90 1018,143 1040,131 1048,127 1040,150 1040,160 1041,170 1054,194 1041,189 1011,166 1015,223 1040,211 1052,207 1038,230 1040,240 1040,250 1024,273 1038,268 1064,247 1058,306 1040,288 1024,284 1042,310 1040,320 1040,330 1054,353 1041,350 1015,327 1019,385 1040,371 1050,365 1042,390 1040,400 1040,410 1028,432 1042,428 1072,408 1064,466 1040,451 1028,444 1042,470 1040,480 1039,490 1026,506 1040,509 1068,494 1066,544 1040,531 1034,526 1038,550 1040,560 1040,570 1048,591 1040,591 1020,569 1012,622 1040,609 1050,608 1041,630 1040,640 1038,650 1024,672 1042,671 1066,648 1064,706 1040,691 1030,684 1040,710 1040,720 1042,730 1056,746 1041,751 1011,734 1017,780 1040,772 1054,770 1039,790 1040,800 1039,810 1032,826 1040,829 1068,814 1062,863 1040,849 1036,847 1040,870 1040,880 1041,890 1024,906 1039,908 1067,894 1067,946 1040,929 1030,924 1038,950 1040,960 "
	id="pfad_23" 
	inkscape:connector-curvature="0"
 />

<path
	 style="fill:none;stroke:#000000;stroke-width:0.50px;stroke-linecap:round;stroke-linejoin:miter;stroke-opacity:1"
 d="M 1120,0 C1121,10 1112,32 1119,28 1141,8 1149,67 1120,48 1108,43 1120,70 1120,80 1119,90 1134,110 1120,108 1094,90 1090,147 1120,132 1126,123 1120,150 1120,160 1118,170 1104,187 1122,190 1142,173 1148,225 1120,208 1106,205 1120,230 1120,240 1119,250 1108,272 1119,268 1143,248 1141,301 1120,292 1114,289 1122,310 1120,320 1121,330 1108,349 1120,349 1142,331 1146,388 1120,371 1112,362 1121,390 1120,400 1120,410 1106,434 1122,428 1144,406 1144,464 1120,452 1110,446 1120,470 1120,480 1121,490 1134,514 1122,511 1100,486 1102,546 1120,531 1130,524 1122,550 1120,560 1119,570 1128,588 1120,592 1090,572 1100,628 1120,610 1126,602 1118,630 1120,640 1119,650 1136,670 1122,672 1092,650 1100,708 1120,688 1136,682 1121,710 1120,720 1121,730 1132,746 1121,748 1099,734 1101,786 1120,768 1132,764 1119,790 1120,800 1121,810 1110,826 1122,829 1144,814 1152,868 1120,849 1106,842 1120,870 1120,880 1122,890 1112,911 1122,912 1150,889 1152,948 1120,929 1112,922 1118,950 1120,960 "
	id="pfad_24" 
	inkscape:connector-curvature="0"
 />

<path
	 style="fill:none;stroke:#000000;stroke-width:0.50px;stroke-linecap:round;stroke-linejoin:miter;stroke-opacity:1"
 d="M 1200,0 C1201,10 1188,26 1202,30 1228,14 1222,64 1200,49 1192,46 1202,70 1200,80 1202,90 1190,106 1199,109 1221,94 1219,141 1200,129 1188,129 1202,150 1200,160 1200,170 1190,188 1199,192 1227,172 1225,223 1200,211 1196,207 1199,230 1200,240 1201,250 1192,271 1202,269 1226,249 1224,305 1200,291 1194,285 1198,310 1200,320 1200,330 1214,353 1202,352 1180,327 1178,384 1200,368 1210,366 1199,390 1200,400 1198,410 1190,430 1198,431 1228,410 1220,467 1200,450 1194,443 1198,470 1200,480 1200,490 1208,510 1201,509 1171,490 1177,548 1200,528 1212,522 1198,550 1200,560 1198,570 1188,593 1199,591 1223,567 1221,628 1200,609 1190,602 1198,630 1200,640 1202,650 1192,667 1202,670 1230,653 1226,704 1200,689 1190,686 1201,710 1200,720 1202,730 1186,752 1198,749 1228,728 1228,784 1200,771 1190,766 1199,790 1200,800 1198,810 1210,834 1201,830 1175,806 1177,865 1200,849 1216,845 1199,870 1200,880 1198,890 1208,913 1198,909 1168,887 1170,945 1200,929 1216,925 1201,950 1200,960 "
	id="pfad_25" 
	inkscape:connector-curvature="0"
 />

<rect
style="fill:none;fill-opacity:1;fill-rule:evenodd;stroke:#000000;stroke-width:1px;stroke-linejoin:round;stroke-miterlimit:4;stroke-dasharray:none;stroke-dashoffset:0;stroke-opacity:1"
id="Umrandung"
width="1280"
height="960"
x="0"
y="0"
rx="1"
ry="1" />
<text xml:space="preserve"
style="font-style:normal;font-variant:normal;font-weight:bold;font-stretch:normal;text-anchor:middle;font-size:15px;font-family:Consolas;writing-mode:lr-tb;fill:#ff0000;fill-opacity:1;stroke:none"
x="640.0"
y="480.0"
id="Branding"
>Puzzle Generator by mini revollo</text>
</svg>