<?xml version="1.1" encoding="UTF-8"?>
<svg
xmlns = "http://www.w3.org/2000/svg"

width = "800"
height = "400"
viewBox= "0 0 800 400">

<g 
	 id = "Puzzle mit Rand" ><path
	 style="fill:none;stroke:#000000;stroke-width:0.50px;stroke-linecap:round;stroke-linejoin:miter;stroke-opacity:1"
 d="M 0,80 C10,79 28,88 29,82 10,55 65,56 50,78 45,87 70,79 80,80 90,82 105,71 108,79 89,107 146,104 132,80 126,72 150,78 160,80 170,80 187,74 192,81 170,107 220,105 210,78 209,69 230,78 240,80 250,80 267,72 272,78 251,107 303,103 289,78 285,68 310,78 320,80 330,79 346,88 348,82 329,56 385,55 372,79 367,85 390,82 400,80 410,79 428,71 430,78 409,103 462,107 448,82 448,76 470,82 480,80 490,79 506,87 513,81 489,56 545,57 527,80 525,87 550,78 560,80 570,81 589,73 590,82 570,108 627,111 607,79 605,73 630,78 640,80 650,80 667,90 673,81 651,52 706,52 689,82 688,89 710,78 720,80 730,82 745,72 751,81 731,111 783,105 767,82 770,76 790,81 800,80 "
	id="pfad_0" 
	inkscape:connector-curvature="0"
 />

<path
	 style="fill:none;stroke:#000000;stroke-width:0.50px;stroke-linecap:round;stroke-linejoin:miter;stroke-opacity:1"
 d="M 0,160 C10,162 27,154 32,159 10,188 60,189 50,162 49,154 70,160 80,160 90,159 108,150 112,158 90,186 144,185 129,158 128,151 150,160 160,160 170,162 187,167 189,161 171,134 226,131 210,160 207,168 230,160 240,160 250,158 267,154 272,162 250,189 305,187 291,162 288,154 310,159 320,160 330,161 347,169 351,160 331,136 380,134 371,160 368,166 390,159 400,160 410,161 428,152 428,162 411,190 466,187 447,162 450,156 470,159 480,160 490,160 506,154 508,162 491,186 547,189 529,158 529,150 550,159 560,160 570,159 585,168 592,158 569,129 620,129 608,160 607,168 630,162 640,160 650,162 669,170 668,158 651,131 700,134 688,159 690,168 710,160 720,160 730,161 749,151 753,162 729,189 783,188 771,162 766,154 790,162 800,160 "
	id="pfad_1" 
	inkscape:connector-curvature="0"
 />

<path
	 style="fill:none;stroke:#000000;stroke-width:0.50px;stroke-linecap:round;stroke-linejoin:miter;stroke-opacity:1"
 d="M 0,240 C10,242 25,247 32,238 10,208 65,212 50,242 49,251 70,241 80,240 90,239 107,232 111,238 89,263 143,264 130,238 126,232 150,238 160,240 170,239 186,232 192,242 170,267 222,271 209,239 206,233 230,241 240,240 250,242 266,249 272,242 251,216 307,217 289,239 286,246 310,240 320,240 330,242 345,233 352,239 330,264 386,264 369,241 370,232 390,242 400,240 410,240 425,231 430,241 411,268 466,265 452,241 449,231 470,240 480,240 490,238 505,248 508,241 491,217 544,211 529,240 527,248 550,242 560,240 570,241 589,246 593,240 570,210 625,210 608,240 607,246 630,239 640,240 650,242 666,247 673,238 651,214 705,209 688,238 689,247 710,242 720,240 730,242 747,232 752,239 729,269 787,267 771,240 766,234 790,238 800,240 "
	id="pfad_2" 
	inkscape:connector-curvature="0"
 />

<path
	 style="fill:none;stroke:#000000;stroke-width:0.50px;stroke-linecap:round;stroke-linejoin:miter;stroke-opacity:1"
 d="M 0,320 C10,322 26,330 33,319 9,294 62,289 48,320 45,326 70,319 80,320 90,320 106,310 112,321 91,347 147,350 127,318 126,311 150,321 160,320 170,318 188,310 192,318 171,342 221,345 211,320 207,312 230,320 240,320 250,320 265,329 269,319 250,290 303,289 289,320 288,328 310,321 320,320 330,319 347,329 348,318 330,294 385,291 369,322 365,329 390,321 400,320 410,318 425,329 431,322 409,297 467,294 447,320 446,326 470,320 480,320 490,319 508,329 512,318 489,292 543,288 528,319 526,327 550,319 560,320 570,318 589,312 588,321 569,350 624,350 611,321 608,312 630,322 640,320 650,319 667,313 673,321 650,346 700,349 687,318 688,310 710,320 720,320 730,318 745,328 752,320 731,290 781,290 770,322 767,332 790,319 800,320 "
	id="pfad_3" 
	inkscape:connector-curvature="0"
 />

<path
	 style="fill:none;stroke:#000000;stroke-width:0.50px;stroke-linecap:round;stroke-linejoin:miter;stroke-opacity:1"
 d="M 80,0 C78,10 70,26 79,30 117,10 109,70 80,52 70,40 79,70 80,80 82,90 66,113 80,110 118,83 114,145 80,130 70,125 82,150 80,160 80,170 70,189 80,189 110,167 116,231 80,210 64,199 78,230 80,240 81,250 94,267 79,271 51,249 51,310 80,289 92,280 82,310 80,320 80,330 96,354 80,352 50,322 48,389 80,368 96,361 81,390 80,400 "
	id="pfad_4" 
	inkscape:connector-curvature="0"
 />

<path
	 style="fill:none;stroke:#000000;stroke-width:0.50px;stroke-linecap:round;stroke-linejoin:miter;stroke-opacity:1"
 d="M 160,0 C160,10 172,30 159,30 121,6 123,65 160,51 164,45 158,70 160,80 158,90 176,112 159,110 121,84 129,150 160,128 166,120 158,150 160,160 158,170 146,187 162,188 198,169 200,229 160,212 150,201 161,230 160,240 162,250 168,272 162,272 124,244 126,305 160,292 176,285 158,310 160,320 161,330 148,349 161,351 197,327 197,386 160,369 154,364 160,390 160,400 "
	id="pfad_5" 
	inkscape:connector-curvature="0"
 />

<path
	 style="fill:none;stroke:#000000;stroke-width:0.50px;stroke-linecap:round;stroke-linejoin:miter;stroke-opacity:1"
 d="M 240,0 C240,10 250,32 240,32 206,4 202,67 240,50 248,43 240,70 240,80 240,90 250,111 238,108 210,85 210,145 240,129 252,125 242,150 240,160 240,170 252,194 241,191 203,162 207,226 240,212 254,204 239,230 240,240 241,250 250,269 240,271 206,247 212,308 240,291 252,282 238,310 240,320 242,330 250,349 242,352 208,327 208,388 240,370 244,362 241,390 240,400 "
	id="pfad_6" 
	inkscape:connector-curvature="0"
 />

<path
	 style="fill:none;stroke:#000000;stroke-width:0.50px;stroke-linecap:round;stroke-linejoin:miter;stroke-opacity:1"
 d="M 320,0 C319,10 312,30 322,28 360,6 354,71 320,52 316,39 322,70 320,80 322,90 330,106 322,111 284,90 294,147 320,130 328,123 320,150 320,160 322,170 336,192 319,188 283,164 289,225 320,212 330,205 321,230 320,240 321,250 306,266 322,271 350,250 356,312 320,288 316,278 321,310 320,320 322,330 304,349 319,351 351,327 353,391 320,372 314,359 320,390 320,400 "
	id="pfad_7" 
	inkscape:connector-curvature="0"
 />

<path
	 style="fill:none;stroke:#000000;stroke-width:0.50px;stroke-linecap:round;stroke-linejoin:miter;stroke-opacity:1"
 d="M 400,0 C399,10 390,29 401,30 429,7 433,72 400,52 390,38 400,70 400,80 399,90 410,111 399,112 369,85 369,152 400,131 412,118 398,150 400,160 400,170 408,187 399,192 369,169 363,227 400,212 414,203 399,230 400,240 401,250 410,270 402,271 370,246 372,312 400,288 410,278 401,310 400,320 399,330 416,349 402,349 366,327 374,385 400,368 404,365 402,390 400,400 "
	id="pfad_8" 
	inkscape:connector-curvature="0"
 />

<path
	 style="fill:none;stroke:#000000;stroke-width:0.50px;stroke-linecap:round;stroke-linejoin:miter;stroke-opacity:1"
 d="M 480,0 C480,10 490,27 479,31 451,9 443,68 480,52 488,42 478,70 480,80 479,90 466,111 479,109 507,85 517,149 480,130 466,121 482,150 480,160 478,170 494,192 478,189 448,164 442,227 480,211 496,203 482,230 480,240 481,250 470,271 481,268 511,245 511,306 480,289 472,284 479,310 480,320 480,330 490,350 482,350 450,326 450,385 480,368 492,365 480,390 480,400 "
	id="pfad_9" 
	inkscape:connector-curvature="0"
 />

<path
	 style="fill:none;stroke:#000000;stroke-width:0.50px;stroke-linecap:round;stroke-linejoin:miter;stroke-opacity:1"
 d="M 560,0 C558,10 550,26 562,28 600,10 592,67 560,51 544,43 561,70 560,80 559,90 576,112 559,108 529,84 523,148 560,131 572,122 559,150 560,160 561,170 544,193 558,188 586,163 596,230 560,212 556,200 558,230 560,240 559,250 552,271 559,269 597,245 595,307 560,291 550,283 562,310 560,320 558,330 548,352 562,352 598,324 594,384 560,370 544,366 560,390 560,400 "
	id="pfad_10" 
	inkscape:connector-curvature="0"
 />

<path
	 style="fill:none;stroke:#000000;stroke-width:0.50px;stroke-linecap:round;stroke-linejoin:miter;stroke-opacity:1"
 d="M 640,0 C639,10 656,32 638,29 600,4 604,66 640,50 646,44 640,70 640,80 641,90 632,106 639,112 669,90 669,149 640,129 624,121 641,150 640,160 638,170 630,186 641,189 673,170 675,228 640,208 630,202 642,230 640,240 640,250 632,274 639,270 673,242 669,305 640,292 628,285 641,310 640,320 639,330 624,354 641,351 673,322 669,392 640,369 630,358 639,390 640,400 "
	id="pfad_11" 
	inkscape:connector-curvature="0"
 />

<path
	 style="fill:none;stroke:#000000;stroke-width:0.50px;stroke-linecap:round;stroke-linejoin:miter;stroke-opacity:1"
 d="M 720,0 C719,10 734,28 720,32 690,8 688,69 720,49 730,41 719,70 720,80 718,90 732,114 721,112 683,82 683,150 720,132 734,120 721,150 720,160 722,170 704,189 718,190 748,167 754,232 720,208 706,198 719,230 720,240 721,250 734,268 719,272 689,248 685,310 720,289 734,280 718,310 720,320 718,330 706,353 720,352 748,323 758,392 720,371 706,358 721,390 720,400 "
	id="pfad_12" 
	inkscape:connector-curvature="0"
 />

<rect
style="fill:none;fill-opacity:1;fill-rule:evenodd;stroke:#000000;stroke-width:1px;stroke-linejoin:round;stroke-miterlimit:4;stroke-dasharray:none;stroke-dashoffset:0;stroke-opacity:1"
id="Umrandung"
width="800"
height="400"
x="0"
y="0"
rx="5"
ry="5" />

</g><text xml:space="preserve"
style="font-style:normal;font-variant:normal;font-weight:bold;font-stretch:normal;text-anchor:middle;font-size:15px;font-family:Consolas;writing-mode:lr-tb;fill:#ff0000;fill-opacity:1;stroke:none"
x="400.0"
y="200.0"
id="Branding"
>Puzzle Generator by mini revollo</text>
</svg>